# xmcd
#
# Track frame offsets:
#	150
#	16350
#	32201
#
# Disc length: 731 seconds
#
# Revision: 1
# Processed by: cddbd v1.5.1PL0 Copyright (c) Steve Scherf et al.
# Submitted via: EasyCDDAExtractor 8.0.2.1
#
DISCID=1c02d903
DTITLE=Blue Crow Blues Band - Blue Crow Blues Band - demo2005
DYEAR=2005
DGENRE=Blues
TTITLE0=Intro
TTITLE1=Blues Never Hate Me
TTITLE2=Up and Go
EXTD=YEAR: 2002
EXTT0=
EXTT1=
EXTT2=
PLAYORDER=
